<mxfile host="app.diagrams.net" agent="Mozilla/5.0 (Windows NT 10.0; Win64; x64) AppleWebKit/537.36 (KHTML, like Gecko) Chrome/134.0.0.0 Safari/537.36" version="26.2.3">
  <diagram name="Page-1" id="DXIhbZzROUBZG8i_vgj5">
    <mxGraphModel dx="1491" dy="803" grid="1" gridSize="10" guides="1" tooltips="1" connect="1" arrows="1" fold="1" page="1" pageScale="1" pageWidth="1169" pageHeight="827" background="#FFFFFF" math="0" shadow="0">
      <root>
        <mxCell id="0" />
        <mxCell id="1" parent="0" />
        <mxCell id="H0wumQV7WE8CpXrYCnfX-1" value="&lt;font style=&quot;font-size: 30px;&quot;&gt;High Level Architecture&lt;/font&gt;" style="text;html=1;align=left;verticalAlign=middle;whiteSpace=wrap;rounded=0;fontSize=25;fontStyle=1" vertex="1" parent="1">
          <mxGeometry x="20" y="10" width="660" height="30" as="geometry" />
        </mxCell>
        <mxCell id="H0wumQV7WE8CpXrYCnfX-37" value="" style="group" vertex="1" connectable="0" parent="1">
          <mxGeometry x="30" y="110" width="197.31" height="530" as="geometry" />
        </mxCell>
        <mxCell id="H0wumQV7WE8CpXrYCnfX-2" value="" style="rounded=0;whiteSpace=wrap;html=1;fillColor=none;dashed=1;strokeColor=#747474;" vertex="1" parent="H0wumQV7WE8CpXrYCnfX-37">
          <mxGeometry y="12.44" width="150" height="517.56" as="geometry" />
        </mxCell>
        <mxCell id="H0wumQV7WE8CpXrYCnfX-3" style="edgeStyle=orthogonalEdgeStyle;rounded=0;orthogonalLoop=1;jettySize=auto;html=1;exitX=0.5;exitY=1;exitDx=0;exitDy=0;" edge="1" parent="H0wumQV7WE8CpXrYCnfX-37" source="H0wumQV7WE8CpXrYCnfX-2" target="H0wumQV7WE8CpXrYCnfX-2">
          <mxGeometry relative="1" as="geometry" />
        </mxCell>
        <mxCell id="H0wumQV7WE8CpXrYCnfX-4" value="&lt;font style=&quot;font-size: 24px;&quot;&gt;Sources&lt;/font&gt;" style="rounded=0;whiteSpace=wrap;html=1;strokeColor=none;fillColor=default;" vertex="1" parent="H0wumQV7WE8CpXrYCnfX-37">
          <mxGeometry x="23.437499999999996" width="103.12499999999999" height="24.878048780487806" as="geometry" />
        </mxCell>
        <mxCell id="H0wumQV7WE8CpXrYCnfX-22" value="&lt;b&gt;CRM&lt;/b&gt;" style="image;aspect=fixed;html=1;points=[];align=center;fontSize=12;image=img/lib/azure2/general/Folder_Blank.svg;" vertex="1" parent="H0wumQV7WE8CpXrYCnfX-37">
          <mxGeometry x="49.715624999999996" y="186.58536585365852" width="32.34874999999999" height="26.249999999999996" as="geometry" />
        </mxCell>
        <mxCell id="H0wumQV7WE8CpXrYCnfX-23" value="" style="image;aspect=fixed;html=1;points=[];align=center;fontSize=12;image=img/lib/azure2/general/Files.svg;" vertex="1" parent="H0wumQV7WE8CpXrYCnfX-37">
          <mxGeometry x="74.99999999999999" y="200.00341463414634" width="16.003749999999993" height="17.499999999999996" as="geometry" />
        </mxCell>
        <mxCell id="H0wumQV7WE8CpXrYCnfX-24" value="&lt;b&gt;ERP&lt;/b&gt;" style="image;aspect=fixed;html=1;points=[];align=center;fontSize=12;image=img/lib/azure2/general/Folder_Blank.svg;" vertex="1" parent="H0wumQV7WE8CpXrYCnfX-37">
          <mxGeometry x="49.715624999999996" y="273.6585365853659" width="32.34874999999999" height="26.249999999999996" as="geometry" />
        </mxCell>
        <mxCell id="H0wumQV7WE8CpXrYCnfX-25" value="" style="image;aspect=fixed;html=1;points=[];align=center;fontSize=12;image=img/lib/azure2/general/Files.svg;" vertex="1" parent="H0wumQV7WE8CpXrYCnfX-37">
          <mxGeometry x="74.99999999999999" y="285.99658536585366" width="16.003749999999993" height="17.499999999999996" as="geometry" />
        </mxCell>
        <mxCell id="H0wumQV7WE8CpXrYCnfX-31" value="" style="endArrow=none;html=1;rounded=0;fillColor=#f5f5f5;strokeColor=#666666;" edge="1" parent="H0wumQV7WE8CpXrYCnfX-37">
          <mxGeometry width="50" height="50" relative="1" as="geometry">
            <mxPoint x="14.062499999999998" y="373.17073170731703" as="sourcePoint" />
            <mxPoint x="131.24999999999997" y="373.17073170731703" as="targetPoint" />
          </mxGeometry>
        </mxCell>
        <mxCell id="H0wumQV7WE8CpXrYCnfX-33" value="&lt;b&gt;Object Type:&lt;/b&gt; CSV Files&lt;div&gt;&lt;b&gt;Interface:&lt;/b&gt; Files in Folder&lt;/div&gt;" style="text;html=1;align=left;verticalAlign=middle;whiteSpace=wrap;rounded=0;" vertex="1" parent="H0wumQV7WE8CpXrYCnfX-37">
          <mxGeometry x="7.734375000000004" y="385.609756097561" width="134.521875" height="62.19512195121951" as="geometry" />
        </mxCell>
        <mxCell id="H0wumQV7WE8CpXrYCnfX-38" value="" style="group" vertex="1" connectable="0" parent="1">
          <mxGeometry x="210" y="110" width="802.14" height="540" as="geometry" />
        </mxCell>
        <mxCell id="H0wumQV7WE8CpXrYCnfX-5" value="" style="rounded=0;whiteSpace=wrap;html=1;fillColor=none;dashed=1;strokeColor=#747474;" vertex="1" parent="H0wumQV7WE8CpXrYCnfX-38">
          <mxGeometry y="15.89" width="760" height="514.11" as="geometry" />
        </mxCell>
        <mxCell id="H0wumQV7WE8CpXrYCnfX-6" value="&lt;span style=&quot;font-size: 24px;&quot;&gt;Data Warehouse&lt;/span&gt;" style="rounded=0;whiteSpace=wrap;html=1;strokeColor=none;fillColor=default;" vertex="1" parent="H0wumQV7WE8CpXrYCnfX-38">
          <mxGeometry x="203.2550899790843" width="353.4871130071031" height="31.784064399847857" as="geometry" />
        </mxCell>
        <mxCell id="H0wumQV7WE8CpXrYCnfX-62" value="" style="group" vertex="1" connectable="0" parent="H0wumQV7WE8CpXrYCnfX-38">
          <mxGeometry x="545" y="42.81" width="180" height="477.19" as="geometry" />
        </mxCell>
        <mxCell id="H0wumQV7WE8CpXrYCnfX-17" value="&lt;span style=&quot;font-size: 20px;&quot;&gt;&lt;b&gt;Gold Layer&lt;/b&gt;&lt;/span&gt;" style="rounded=0;whiteSpace=wrap;html=1;fillColor=#fff2cc;strokeColor=#d6b656;" vertex="1" parent="H0wumQV7WE8CpXrYCnfX-62">
          <mxGeometry width="180.00000000000003" height="48.5277966101695" as="geometry" />
        </mxCell>
        <mxCell id="H0wumQV7WE8CpXrYCnfX-21" value="" style="rounded=0;whiteSpace=wrap;html=1;fillColor=none;strokeColor=#d6b656;" vertex="1" parent="H0wumQV7WE8CpXrYCnfX-62">
          <mxGeometry y="56.615762711864406" width="180.00000000000003" height="420.57423728813563" as="geometry" />
        </mxCell>
        <mxCell id="H0wumQV7WE8CpXrYCnfX-52" value="Business-Ready Data" style="text;html=1;align=center;verticalAlign=middle;whiteSpace=wrap;rounded=0;" vertex="1" parent="H0wumQV7WE8CpXrYCnfX-62">
          <mxGeometry x="20.769230769230763" y="146.56592944108797" width="138.46153846153848" height="39.0589582472096" as="geometry" />
        </mxCell>
        <mxCell id="H0wumQV7WE8CpXrYCnfX-59" value="" style="endArrow=none;html=1;rounded=0;fillColor=#fff2cc;strokeColor=#d6b656;" edge="1" parent="H0wumQV7WE8CpXrYCnfX-62">
          <mxGeometry width="50" height="50" relative="1" as="geometry">
            <mxPoint x="13.846153846153815" y="185.62010937539748" as="sourcePoint" />
            <mxPoint x="166.1538461538462" y="185.62010937539748" as="targetPoint" />
          </mxGeometry>
        </mxCell>
        <mxCell id="H0wumQV7WE8CpXrYCnfX-70" value="" style="html=1;verticalLabelPosition=bottom;align=center;labelBackgroundColor=#ffffff;verticalAlign=top;strokeWidth=2;strokeColor=#d6b656;shadow=0;dashed=0;shape=mxgraph.ios7.icons.data;fillColor=#fff2cc;" vertex="1" parent="H0wumQV7WE8CpXrYCnfX-62">
          <mxGeometry x="66.77999999999997" y="76.25791440141396" width="46.43000000000001" height="70.30979707810368" as="geometry" />
        </mxCell>
        <mxCell id="H0wumQV7WE8CpXrYCnfX-84" value="&lt;b&gt;Object Type:&lt;/b&gt;&amp;nbsp;Views&lt;div&gt;&lt;br&gt;&lt;div&gt;No&lt;b&gt; Load&lt;/b&gt;&lt;/div&gt;&lt;div&gt;&lt;b&gt;&lt;br&gt;&lt;/b&gt;&lt;/div&gt;&lt;div&gt;&lt;b&gt;Transformations:&lt;/b&gt;&lt;/div&gt;&lt;div&gt;&lt;ul&gt;&lt;li&gt;Data Integrations&lt;/li&gt;&lt;li&gt;Aggregations&lt;/li&gt;&lt;li&gt;Business Logics&lt;/li&gt;&lt;/ul&gt;&lt;/div&gt;&lt;div&gt;&lt;b&gt;&lt;br&gt;&lt;/b&gt;&lt;/div&gt;&lt;div&gt;&lt;b&gt;Data Model:&amp;nbsp;&lt;/b&gt;&lt;/div&gt;&lt;/div&gt;&lt;div&gt;&lt;ul&gt;&lt;li&gt;Star Schema&lt;/li&gt;&lt;li&gt;Flat Table&lt;/li&gt;&lt;li&gt;Aggregated Table&lt;/li&gt;&lt;/ul&gt;&lt;/div&gt;" style="text;html=1;align=left;verticalAlign=middle;whiteSpace=wrap;rounded=0;" vertex="1" parent="H0wumQV7WE8CpXrYCnfX-62">
          <mxGeometry x="20.769999999999982" y="307.1884918450903" width="157.31000000000003" height="26.145570651913367" as="geometry" />
        </mxCell>
        <mxCell id="H0wumQV7WE8CpXrYCnfX-63" value="" style="group" vertex="1" connectable="0" parent="H0wumQV7WE8CpXrYCnfX-38">
          <mxGeometry x="290" y="47.67" width="180" height="472.33" as="geometry" />
        </mxCell>
        <mxCell id="H0wumQV7WE8CpXrYCnfX-9" value="&lt;span style=&quot;font-size: 20px;&quot;&gt;&lt;b&gt;Silver Layer&lt;/b&gt;&lt;/span&gt;" style="rounded=0;whiteSpace=wrap;html=1;fillColor=#f5f5f5;strokeColor=#666666;fontColor=#333333;" vertex="1" parent="H0wumQV7WE8CpXrYCnfX-63">
          <mxGeometry width="180.00000000000003" height="48.0335593220339" as="geometry" />
        </mxCell>
        <mxCell id="H0wumQV7WE8CpXrYCnfX-20" value="" style="rounded=0;whiteSpace=wrap;html=1;fillColor=none;strokeColor=#666666;fontColor=#333333;" vertex="1" parent="H0wumQV7WE8CpXrYCnfX-63">
          <mxGeometry y="56.039152542372875" width="180.00000000000003" height="416.29084745762714" as="geometry" />
        </mxCell>
        <mxCell id="H0wumQV7WE8CpXrYCnfX-50" value="Cleaned, Standardized Data" style="text;html=1;align=center;verticalAlign=middle;whiteSpace=wrap;rounded=0;" vertex="1" parent="H0wumQV7WE8CpXrYCnfX-63">
          <mxGeometry x="13.843076923076952" y="140.17771215669637" width="166.15384615384616" height="38.66115750310046" as="geometry" />
        </mxCell>
        <mxCell id="H0wumQV7WE8CpXrYCnfX-58" value="" style="endArrow=none;html=1;rounded=0;fillColor=#f5f5f5;strokeColor=#666666;" edge="1" parent="H0wumQV7WE8CpXrYCnfX-63">
          <mxGeometry width="50" height="50" relative="1" as="geometry">
            <mxPoint x="12.996153846153902" y="178.83414001220973" as="sourcePoint" />
            <mxPoint x="165.30384615384625" y="178.83414001220973" as="targetPoint" />
          </mxGeometry>
        </mxCell>
        <mxCell id="H0wumQV7WE8CpXrYCnfX-71" value="" style="html=1;verticalLabelPosition=bottom;align=center;labelBackgroundColor=#ffffff;verticalAlign=top;strokeWidth=2;strokeColor=#666666;shadow=0;dashed=0;shape=mxgraph.ios7.icons.data;fillColor=#f5f5f5;fontColor=#333333;" vertex="1" parent="H0wumQV7WE8CpXrYCnfX-63">
          <mxGeometry x="66.78999999999998" y="70.58575770733825" width="46.43000000000001" height="69.5937183383992" as="geometry" />
        </mxCell>
        <mxCell id="H0wumQV7WE8CpXrYCnfX-83" value="&lt;b&gt;Object Type:&lt;/b&gt; Tables&lt;div&gt;&lt;br&gt;&lt;div&gt;&lt;b&gt;Load:&lt;/b&gt;&lt;/div&gt;&lt;div&gt;&lt;ul&gt;&lt;li&gt;Batch Processing&lt;/li&gt;&lt;li&gt;Full load&lt;/li&gt;&lt;li&gt;Truncate &amp;amp; Insert&lt;/li&gt;&lt;/ul&gt;&lt;b&gt;Transformations&lt;/b&gt;&lt;/div&gt;&lt;div&gt;&lt;ul&gt;&lt;li&gt;Data Cleansing&lt;/li&gt;&lt;li&gt;Data Standardization&lt;/li&gt;&lt;li&gt;Data Normalization&lt;/li&gt;&lt;li&gt;Derived Columns&lt;/li&gt;&lt;li&gt;Data Enrichment&lt;/li&gt;&lt;/ul&gt;&lt;/div&gt;&lt;div&gt;&lt;b&gt;&lt;br&gt;&lt;/b&gt;&lt;/div&gt;&lt;div&gt;&lt;b&gt;Data Model: &lt;/b&gt;None (as-is)&lt;/div&gt;&lt;/div&gt;" style="text;html=1;align=left;verticalAlign=middle;whiteSpace=wrap;rounded=0;" vertex="1" parent="H0wumQV7WE8CpXrYCnfX-63">
          <mxGeometry x="18.270000000000024" y="318.5955999421045" width="157.31000000000003" height="25.87928788536692" as="geometry" />
        </mxCell>
        <mxCell id="H0wumQV7WE8CpXrYCnfX-64" value="" style="group" vertex="1" connectable="0" parent="H0wumQV7WE8CpXrYCnfX-38">
          <mxGeometry x="35.34987408726625" y="47.67132899011182" width="180" height="492.32867100988824" as="geometry" />
        </mxCell>
        <mxCell id="H0wumQV7WE8CpXrYCnfX-10" value="" style="rounded=0;whiteSpace=wrap;html=1;fillColor=none;strokeColor=#d79b00;" vertex="1" parent="H0wumQV7WE8CpXrYCnfX-64">
          <mxGeometry y="55.63" width="180" height="414.37" as="geometry" />
        </mxCell>
        <mxCell id="H0wumQV7WE8CpXrYCnfX-16" value="&lt;font style=&quot;font-size: 20px;&quot;&gt;&lt;b&gt;Bronze Layer&lt;/b&gt;&lt;/font&gt;" style="rounded=0;whiteSpace=wrap;html=1;fillColor=#ffe6cc;strokeColor=#d79b00;" vertex="1" parent="H0wumQV7WE8CpXrYCnfX-64">
          <mxGeometry width="179.9993588601959" height="47.67132899011182" as="geometry" />
        </mxCell>
        <mxCell id="H0wumQV7WE8CpXrYCnfX-41" value="" style="html=1;verticalLabelPosition=bottom;align=center;labelBackgroundColor=#ffffff;verticalAlign=top;strokeWidth=2;strokeColor=#d79b00;shadow=0;dashed=0;shape=mxgraph.ios7.icons.data;fillColor=#ffe6cc;" vertex="1" parent="H0wumQV7WE8CpXrYCnfX-64">
          <mxGeometry x="59.64978753339269" y="70.06051044414626" width="46.429834621549425" height="69.07585310212649" as="geometry" />
        </mxCell>
        <mxCell id="H0wumQV7WE8CpXrYCnfX-49" value="Raw Data" style="text;html=1;align=center;verticalAlign=middle;whiteSpace=wrap;rounded=0;" vertex="1" parent="H0wumQV7WE8CpXrYCnfX-64">
          <mxGeometry x="41.78029094416727" y="139.13920892406384" width="82.16030690131956" height="38.373443604694366" as="geometry" />
        </mxCell>
        <mxCell id="H0wumQV7WE8CpXrYCnfX-54" value="" style="endArrow=none;html=1;rounded=0;fillColor=#ffe6cc;strokeColor=#d79b00;" edge="1" parent="H0wumQV7WE8CpXrYCnfX-64">
          <mxGeometry width="50" height="50" relative="1" as="geometry">
            <mxPoint x="13.696807829674148" y="177.50795373974537" as="sourcePoint" />
            <mxPoint x="164.32403714876" y="177.50795373974537" as="targetPoint" />
          </mxGeometry>
        </mxCell>
        <mxCell id="H0wumQV7WE8CpXrYCnfX-81" value="&lt;b&gt;Object Type:&lt;/b&gt; Tables&lt;div&gt;&lt;br&gt;&lt;div&gt;&lt;b&gt;Load:&lt;/b&gt;&lt;/div&gt;&lt;div&gt;&lt;ul&gt;&lt;li&gt;Batch Processing&lt;/li&gt;&lt;li&gt;Full load&lt;/li&gt;&lt;li&gt;Truncate &amp;amp; Insert&lt;/li&gt;&lt;/ul&gt;No &lt;b&gt;Transformation&lt;/b&gt;&lt;/div&gt;&lt;div&gt;&lt;b&gt;&lt;br&gt;&lt;/b&gt;&lt;/div&gt;&lt;div&gt;&lt;b&gt;Data Model: &lt;/b&gt;None (as-is)&lt;/div&gt;&lt;/div&gt;" style="text;html=1;align=left;verticalAlign=middle;whiteSpace=wrap;rounded=0;" vertex="1" parent="H0wumQV7WE8CpXrYCnfX-64">
          <mxGeometry x="22.68991918076581" y="256.8671327008112" width="157.3094396794301" height="25.68671327008113" as="geometry" />
        </mxCell>
        <mxCell id="H0wumQV7WE8CpXrYCnfX-65" value="" style="html=1;shadow=0;dashed=0;align=center;verticalAlign=middle;shape=mxgraph.arrows2.arrow;dy=0.6;dx=40;notch=0;fillColor=#dae8fc;strokeColor=#6c8ebf;" vertex="1" parent="H0wumQV7WE8CpXrYCnfX-38">
          <mxGeometry x="215.34923294746216" y="139.13465109872138" width="69.99975066785396" height="41.954965007799174" as="geometry" />
        </mxCell>
        <mxCell id="H0wumQV7WE8CpXrYCnfX-67" value="" style="html=1;shadow=0;dashed=0;align=center;verticalAlign=middle;shape=mxgraph.arrows2.arrow;dy=0.6;dx=40;notch=0;fillColor=#dae8fc;strokeColor=#6c8ebf;" vertex="1" parent="H0wumQV7WE8CpXrYCnfX-38">
          <mxGeometry x="469.9983259127338" y="139.1346510987214" width="69.99975066785396" height="41.954965007799174" as="geometry" />
        </mxCell>
        <mxCell id="H0wumQV7WE8CpXrYCnfX-48" value="" style="shape=singleArrow;whiteSpace=wrap;html=1;fillColor=#dae8fc;strokeColor=#6c8ebf;" vertex="1" parent="H0wumQV7WE8CpXrYCnfX-38">
          <mxGeometry x="739.9973642030276" y="246.16433550494412" width="69.99975066785396" height="37.45979018553498" as="geometry" />
        </mxCell>
        <mxCell id="H0wumQV7WE8CpXrYCnfX-40" value="" style="group" vertex="1" connectable="0" parent="1">
          <mxGeometry x="990" y="110" width="188" height="530" as="geometry" />
        </mxCell>
        <mxCell id="H0wumQV7WE8CpXrYCnfX-7" value="" style="rounded=0;whiteSpace=wrap;html=1;fillColor=none;dashed=1;strokeColor=#747474;" vertex="1" parent="H0wumQV7WE8CpXrYCnfX-40">
          <mxGeometry y="16.060606060606062" width="160" height="513.939393939394" as="geometry" />
        </mxCell>
        <mxCell id="H0wumQV7WE8CpXrYCnfX-8" value="&lt;span style=&quot;font-size: 24px;&quot;&gt;Consume&lt;/span&gt;" style="rounded=0;whiteSpace=wrap;html=1;strokeColor=none;fillColor=default;" vertex="1" parent="H0wumQV7WE8CpXrYCnfX-40">
          <mxGeometry x="17.142857142857142" width="125.71428571428571" height="32.121212121212125" as="geometry" />
        </mxCell>
        <mxCell id="H0wumQV7WE8CpXrYCnfX-86" value="" style="image;aspect=fixed;html=1;points=[];align=center;fontSize=12;image=img/lib/azure2/analytics/Power_BI_Embedded.svg;" vertex="1" parent="H0wumQV7WE8CpXrYCnfX-40">
          <mxGeometry x="17" y="91" width="51" height="68" as="geometry" />
        </mxCell>
        <mxCell id="H0wumQV7WE8CpXrYCnfX-88" value="&lt;font style=&quot;font-size: 15px;&quot;&gt;BI &amp;amp; Reporting&lt;/font&gt;" style="shape=image;html=1;verticalAlign=top;verticalLabelPosition=bottom;labelBackgroundColor=#ffffff;imageAspect=0;aspect=fixed;image=https://cdn1.iconfinder.com/data/icons/ionicons-fill-vol-2/512/logo-tableau-128.png;align=right;" vertex="1" parent="H0wumQV7WE8CpXrYCnfX-40">
          <mxGeometry x="68" y="86" width="78" height="78" as="geometry" />
        </mxCell>
        <mxCell id="H0wumQV7WE8CpXrYCnfX-89" value="&lt;font style=&quot;font-size: 14px;&quot;&gt;Ad-HOC&lt;/font&gt;&lt;div&gt;&lt;font style=&quot;font-size: 14px;&quot;&gt;SQL Queries&lt;/font&gt;&lt;/div&gt;" style="sketch=0;points=[[0,0,0],[0.25,0,0],[0.5,0,0],[0.75,0,0],[1,0,0],[0,1,0],[0.25,1,0],[0.5,1,0],[0.75,1,0],[1,1,0],[0,0.25,0],[0,0.5,0],[0,0.75,0],[1,0.25,0],[1,0.5,0],[1,0.75,0]];outlineConnect=0;fontColor=#232F3E;fillColor=#8C4FFF;strokeColor=#ffffff;dashed=0;verticalLabelPosition=bottom;verticalAlign=top;align=center;html=1;fontSize=12;fontStyle=0;aspect=fixed;shape=mxgraph.aws4.resourceIcon;resIcon=mxgraph.aws4.sql_workbench;" vertex="1" parent="H0wumQV7WE8CpXrYCnfX-40">
          <mxGeometry x="55" y="227" width="78" height="78" as="geometry" />
        </mxCell>
        <mxCell id="H0wumQV7WE8CpXrYCnfX-91" value="&lt;font style=&quot;font-size: 14px;&quot;&gt;Machine Learning&lt;/font&gt;" style="sketch=0;points=[[0,0,0],[0.25,0,0],[0.5,0,0],[0.75,0,0],[1,0,0],[0,1,0],[0.25,1,0],[0.5,1,0],[0.75,1,0],[1,1,0],[0,0.25,0],[0,0.5,0],[0,0.75,0],[1,0.25,0],[1,0.5,0],[1,0.75,0]];outlineConnect=0;fontColor=#232F3E;fillColor=#01A88D;strokeColor=#ffffff;dashed=0;verticalLabelPosition=bottom;verticalAlign=top;align=center;html=1;fontSize=12;fontStyle=0;aspect=fixed;shape=mxgraph.aws4.resourceIcon;resIcon=mxgraph.aws4.bedrock;" vertex="1" parent="H0wumQV7WE8CpXrYCnfX-40">
          <mxGeometry x="56" y="371" width="78" height="78" as="geometry" />
        </mxCell>
        <mxCell id="H0wumQV7WE8CpXrYCnfX-74" value="" style="shape=singleArrow;whiteSpace=wrap;html=1;fillColor=#dae8fc;strokeColor=#6c8ebf;" vertex="1" parent="1">
          <mxGeometry x="165" y="340" width="70" height="35" as="geometry" />
        </mxCell>
        <mxCell id="H0wumQV7WE8CpXrYCnfX-93" value="" style="sketch=0;outlineConnect=0;fontColor=#232F3E;gradientColor=none;fillColor=#C925D1;strokeColor=none;dashed=0;verticalLabelPosition=bottom;verticalAlign=top;align=center;html=1;fontSize=12;fontStyle=0;aspect=fixed;pointerEvents=1;shape=mxgraph.aws4.rds_sql_server_instance;" vertex="1" parent="1">
          <mxGeometry x="210" y="89" width="38" height="38" as="geometry" />
        </mxCell>
      </root>
    </mxGraphModel>
  </diagram>
</mxfile>
